<?xml version="1.0" standalone="no"?>
<!DOCTYPE svg PUBLIC "-//W3C//DTD SVG 20010904//EN"
 "http://www.w3.org/TR/2001/REC-SVG-20010904/DTD/svg10.dtd">
<svg version="1.0" xmlns="http://www.w3.org/2000/svg"
 width="500.000000pt" height="500.000000pt" viewBox="0 0 500.000000 500.000000"
 preserveAspectRatio="xMidYMid meet">

<g transform="translate(0.000000,500.000000) scale(0.100000,-0.100000)"
fill="#000000" stroke="none">
<path d="M2180 4819 c-625 -77 -1173 -385 -1537 -865 -37 -49 -74 -98 -80
-109 -7 -11 -38 -60 -69 -110 -150 -236 -254 -529 -300 -840 -22 -151 -22
-461 0 -620 44 -315 137 -571 318 -878 110 -188 354 -455 543 -598 156 -118
398 -258 530 -306 155 -58 151 -56 260 -84 22 -6 49 -13 60 -16 11 -3 44 -9
73 -14 28 -5 78 -14 110 -19 175 -32 467 -35 632 -9 477 77 909 281 1220 575
36 34 76 72 90 85 36 34 151 166 186 214 16 22 32 42 35 45 16 14 126 197 175
293 104 204 183 455 221 709 24 157 23 472 -1 628 -82 526 -302 942 -706 1336
-108 105 -309 254 -332 246 -5 -1 -8 3 -8 8 0 6 -17 18 -37 28 -21 9 -40 19
-43 23 -11 12 -220 109 -290 135 -156 56 -177 63 -200 68 -14 3 -60 14 -102
25 -165 41 -261 53 -468 56 -113 2 -239 0 -280 -6z m385 -129 c316 -34 525
-91 781 -215 232 -113 410 -241 591 -426 180 -185 289 -342 398 -572 42 -89
129 -334 141 -397 3 -14 11 -57 19 -95 21 -105 47 -316 40 -324 -12 -11 -1315
-13 -1329 -1 -8 5 -16 30 -19 55 -11 77 -31 111 -72 125 -35 11 -39 11 -62
-13 l-26 -25 19 -110 c17 -103 17 -116 2 -199 -48 -272 -241 -475 -500 -527
-97 -20 -149 -20 -246 -1 -268 54 -467 270 -501 545 -25 194 39 373 183 515
108 107 188 147 378 189 38 8 63 57 47 88 -32 60 -84 66 -214 23 -138 -46
-210 -90 -316 -195 -81 -81 -102 -109 -142 -190 -26 -52 -57 -136 -70 -186
l-22 -92 -50 -6 c-78 -9 -1283 -7 -1289 3 -3 4 -1 35 4 67 5 33 14 100 20 149
82 626 468 1206 1015 1522 124 72 143 82 239 123 201 85 358 127 596 160 157
21 258 24 385 10z m545 -1884 c0 -7 -9 -16 -20 -19 -25 -6 -26 1 -2 19 22 17
22 17 22 0z m-1466 -308 c2 -7 11 -48 21 -92 21 -95 87 -230 152 -311 95 -117
249 -216 400 -256 100 -27 277 -29 376 -5 145 35 295 122 393 229 100 109 134
179 202 417 l7 25 670 0 670 0 -3 -70 c-18 -370 -173 -792 -409 -1113 -282
-383 -718 -676 -1178 -792 -419 -106 -875 -80 -1272 71 -629 239 -1113 766
-1287 1402 -46 168 -95 474 -79 500 2 4 303 7 669 7 523 0 665 -3 668 -12z"/>
<path d="M2212 4355 c-198 -26 -375 -73 -392 -105 -17 -31 -11 -65 14 -89 l24
-22 182 41 c219 49 349 59 543 40 147 -14 170 -10 181 36 9 35 -14 69 -56 83
-99 31 -322 38 -496 16z"/>
<path d="M2976 4246 c-12 -10 -19 -29 -20 -53 -1 -33 3 -39 39 -60 22 -12 69
-34 105 -49 36 -14 73 -30 84 -36 13 -7 21 -6 26 2 4 6 10 11 14 11 19 -3 25
2 36 29 19 45 -5 72 -105 121 -97 46 -151 57 -179 35z"/>
<path d="M2632 3287 c-27 -28 -29 -78 -4 -99 9 -9 40 -27 69 -42 28 -14 81
-48 118 -76 74 -56 112 -64 145 -28 11 12 20 32 20 45 0 33 -74 104 -155 149
-150 83 -160 86 -193 51z"/>
<path d="M2300 2943 c-105 -38 -179 -106 -228 -211 -24 -50 -27 -69 -27 -157
0 -86 4 -107 26 -155 39 -81 99 -144 177 -182 63 -31 72 -33 177 -33 101 0
114 2 163 28 75 40 134 97 173 169 33 61 34 67 34 173 0 104 -2 114 -33 177
-38 77 -93 130 -179 173 -49 24 -72 29 -148 32 -64 2 -103 -2 -135 -14z m227
-152 c148 -75 177 -265 59 -383 -51 -51 -111 -72 -186 -65 -164 15 -265 181
-199 327 59 130 203 184 326 121z"/>
<path d="M1110 1674 c-117 -78 -146 -128 -100 -174 33 -33 75 -26 148 27 36
25 74 55 84 65 40 40 7 118 -50 118 -15 0 -52 -16 -82 -36z"/>
<path d="M1439 1423 c-24 -6 -81 -81 -73 -95 4 -6 3 -8 -4 -4 -17 10 -62 -57
-62 -92 0 -54 53 -87 100 -62 19 10 109 120 129 158 30 56 -24 113 -90 95z
m-11 -91 c-7 -18 -19 -32 -28 -32 -12 0 -12 2 -2 9 7 4 14 14 15 22 3 18 18
42 23 37 2 -3 -2 -19 -8 -36z"/>
<path d="M1761 1203 c-24 -21 -91 -174 -91 -208 0 -55 80 -79 121 -37 25 26
79 156 79 191 0 60 -64 91 -109 54z"/>
<path d="M2142 1087 c-29 -30 -60 -206 -44 -242 20 -43 100 -46 122 -5 16 30
41 188 34 216 -13 52 -76 70 -112 31z"/>
<path d="M2553 1085 c-39 -27 -44 -47 -33 -132 18 -136 27 -153 84 -153 50 0
69 28 67 95 -2 72 -18 154 -33 174 -7 9 -12 17 -13 18 0 1 -11 4 -25 8 -16 3
-34 0 -47 -10z"/>
</g>
</svg>
